<svg width="927" height="469" viewBox="0 0 927 469" fill="none" xmlns="http://www.w3.org/2000/svg">
<path d="M349.129 297.294C437.857 357.422 595.499 410 665.537 383.609C735.575 357.217 694.987 220.356 665.537 181.262C636.087 142.168 535.46 149.527 484.732 155.023C434.005 160.52 260.401 237.166 349.129 297.294Z" stroke="#48CAB2" stroke-width="4"/>
<path d="M386.507 291.288C455.154 337.887 577.119 378.635 631.307 358.182C685.494 337.729 654.092 231.661 631.307 201.363C608.522 171.066 530.668 176.769 491.421 181.028C452.174 185.288 317.859 244.689 386.507 291.288Z" stroke="#48CAB2" stroke-width="3"/>
<path d="M422.146 285.505C471.647 319.076 559.595 348.432 598.669 333.697C637.743 318.962 615.099 242.548 598.669 220.72C582.239 198.893 526.099 203.002 497.799 206.07C469.498 209.139 372.645 251.933 422.146 285.505Z" stroke="#48CAB2" stroke-width="2"/>
<path d="M464.74 278.609C491.358 296.648 538.651 312.421 559.662 304.504C580.674 296.586 568.497 255.528 559.662 243.8C550.827 232.072 520.639 234.279 505.421 235.928C490.203 237.577 438.122 260.571 464.74 278.609Z" stroke="#48CAB2"/>
<circle cx="128" cy="137" r="17" fill="#FFBA5F"/>
<g clip-path="url(#clip0_102_8)">
<path d="M184.416 384.279L173.063 341.91L226.273 172.125L263.922 162.037L279.334 219.554L257.491 225.407L226.479 325.244L226.949 327L360.313 291.266L371.783 334.074L184.416 384.279ZM302.972 392.511L289.502 342.239L285.629 323.395L243.836 167.419L294.657 153.802L354.891 378.599L302.972 392.511Z" fill="#333333"/>
<path d="M469.104 342.517C448.801 342.517 431.301 337.707 416.604 328.085C401.907 318.388 390.582 304.487 382.627 286.381C374.673 268.199 370.733 246.343 370.809 220.813C370.885 195.282 374.862 173.616 382.741 155.813C390.695 137.934 401.983 124.335 416.604 115.017C431.301 105.623 448.801 100.926 469.104 100.926C489.407 100.926 506.907 105.623 521.604 115.017C536.377 124.335 547.741 137.934 555.695 155.813C563.65 173.692 567.589 195.358 567.513 220.813C567.513 246.419 563.536 268.313 555.582 286.495C547.627 304.676 536.301 318.578 521.604 328.199C506.983 337.745 489.483 342.517 469.104 342.517ZM469.104 296.495C481.226 296.495 491.036 290.32 498.536 277.972C506.036 265.548 509.748 246.495 509.673 220.813C509.673 203.995 507.968 190.131 504.559 179.222C501.15 168.237 496.415 160.055 490.354 154.676C484.294 149.298 477.21 146.608 469.104 146.608C457.059 146.608 447.324 152.707 439.9 164.904C432.476 177.025 428.726 195.661 428.65 220.813C428.574 237.858 430.203 251.987 433.536 263.199C436.945 274.411 441.718 282.782 447.854 288.313C453.991 293.767 461.074 296.495 469.104 296.495Z" fill="#333333"/>
<path d="M467.104 323.517C446.801 323.517 429.301 318.707 414.604 309.085C399.907 299.388 388.582 285.487 380.627 267.381C372.673 249.199 368.733 227.343 368.809 201.813C368.885 176.282 372.862 154.616 380.741 136.813C388.695 118.934 399.983 105.335 414.604 96.0173C429.301 86.6233 446.801 81.9263 467.104 81.9263C487.407 81.9263 504.907 86.6233 519.604 96.0173C534.377 105.335 545.741 118.934 553.695 136.813C561.65 154.692 565.589 176.358 565.513 201.813C565.513 227.419 561.536 249.313 553.582 267.495C545.627 285.676 534.301 299.578 519.604 309.199C504.983 318.745 487.483 323.517 467.104 323.517ZM467.104 277.495C479.226 277.495 489.036 271.32 496.536 258.972C504.036 246.548 507.748 227.495 507.673 201.813C507.673 184.995 505.968 171.131 502.559 160.222C499.15 149.237 494.415 141.055 488.354 135.676C482.294 130.298 475.21 127.608 467.104 127.608C455.059 127.608 445.324 133.707 437.9 145.904C430.476 158.025 426.726 176.661 426.65 201.813C426.574 218.858 428.203 232.987 431.536 244.199C434.945 255.411 439.718 263.782 445.854 269.313C451.991 274.767 459.074 277.495 467.104 277.495Z" fill="#79D4FD"/>
<path d="M568.369 334.847L579.722 292.478L710.696 172.046L748.345 182.134L732.934 239.65L711.091 233.798L634.314 304.753L633.844 306.51L767.207 342.244L755.737 385.052L568.369 334.847ZM666.926 401.255L680.397 350.983L686.465 332.727L728.258 176.752L779.079 190.369L718.845 415.166L666.926 401.255Z" fill="#333333"/>
</g>
<defs>
<clipPath id="clip0_102_8">
<rect width="694" height="432" fill="white" transform="translate(121.633 36.8354)"/>
</clipPath>
</defs>
</svg>
