<svg width="321" height="352" viewBox="0 0 321 352" fill="none" xmlns="http://www.w3.org/2000/svg">
<path fill-rule="evenodd" clip-rule="evenodd" d="M149 0C147.343 0 146 1.34314 146 3V128C146 129.657 147.343 131 149 131H171C172.657 131 174 129.657 174 128V3C174 1.34314 172.657 0 171 0H149ZM96.6628 43.7328C98.611 42.8873 100.758 44.3353 100.758 46.4591V67.5155C100.758 68.6587 100.106 69.7007 99.0873 70.2195C55.1171 92.6147 25 138.308 25 191.036C25 265.87 85.6654 326.536 160.5 326.536C235.335 326.536 296 265.87 296 191.036C296 138.308 265.883 92.6147 221.913 70.2195C220.894 69.7007 220.242 68.6588 220.242 67.5155V46.4592C220.242 44.3353 222.389 42.8873 224.337 43.7328C281.216 68.4166 321 125.08 321 191.036C321 279.677 249.142 351.536 160.5 351.536C71.8583 351.536 0 279.677 0 191.036C0 125.08 39.7835 68.4166 96.6628 43.7328Z" fill="#FAFAFA"/>
</svg>
