<svg width="430" height="430" viewBox="0 0 430 430" fill="none" xmlns="http://www.w3.org/2000/svg">
<path fill-rule="evenodd" clip-rule="evenodd" d="M360.739 214.5C360.739 294.857 295.596 360 215.238 360C139.209 360 76.8003 301.686 70.2977 227.345C70.1785 225.983 69.1739 224.85 67.8292 224.602L48.505 221.047C46.6209 220.7 44.8984 222.196 45.0047 224.108C49.9873 313.803 124.298 385 215.238 385C309.403 385 385.739 308.665 385.739 214.5C385.739 120.335 309.403 44 215.238 44C171.601 44 131.793 60.3933 101.636 87.3574L60.1414 49.7876L66.7344 143.454L160.593 140.738L120.29 104.247C145.773 82.2811 178.955 69 215.238 69C295.596 69 360.739 134.143 360.739 214.5ZM192.739 134C192.739 132.343 194.082 131 195.739 131H214.739C216.396 131 217.739 132.343 217.739 134V223.766L277.56 252.026C279.058 252.734 279.699 254.522 278.991 256.02L270.876 273.199C270.168 274.698 268.38 275.338 266.882 274.63L195.451 240.886C194.799 240.578 194.31 240.066 194.023 239.461C193.247 238.919 192.739 238.019 192.739 237V134Z" fill="#333333"/>
</svg>
