<svg width="550" height="378" viewBox="0 0 550 378" fill="none" xmlns="http://www.w3.org/2000/svg">
<path d="M287.499 313V158.261H348.854V224.95L397.729 175.454L447.125 224.95V65H509V313H447.125L398.249 263.504L349.374 313H287.499Z" fill="#222222"/>
<path d="M287.499 313V158.261H348.854V224.95L397.729 175.454L447.125 224.95V65H509V313H447.125L398.249 263.504L349.374 313H287.499Z" fill="#444444" fill-opacity="0.5"/>
<path d="M40 313V65H102.395V251H256.302V313H40Z" fill="#222222"/>
<path d="M40 313V65H102.395V251H256.302V313H40Z" fill="#444444" fill-opacity="0.5"/>
<path d="M132.552 127.521L133.072 65.521L348.854 65V127.521H256.302V219.74H194.427V127.521H132.552Z" fill="#222222"/>
<path d="M132.552 127.521L133.072 65.521L348.854 65V127.521H256.302V219.74H194.427V127.521H132.552Z" fill="#444444" fill-opacity="0.5"/>
</svg>
