<svg width="469" height="248" viewBox="0 0 469 248" fill="none" xmlns="http://www.w3.org/2000/svg">
<path d="M247.499 248V93.2605H308.854V159.95L357.729 110.454L407.125 159.95V0H469V248H407.125L358.249 198.504L309.374 248H247.499Z" fill="#ECECEC"/>
<path d="M247.499 248V93.2605H308.854V159.95L357.729 110.454L407.125 159.95V0H469V248H407.125L358.249 198.504L309.374 248H247.499Z" fill="#FAFAFA" fill-opacity="0.5"/>
<path d="M0 248V0H62.3947V186H216.302V248H0Z" fill="#ECECEC"/>
<path d="M0 248V0H62.3947V186H216.302V248H0Z" fill="#FAFAFA" fill-opacity="0.5"/>
<path d="M92.5521 62.521L93.0721 0.521008L308.854 0V62.521H216.302V154.74H154.427V62.521H92.5521Z" fill="#ECECEC"/>
<path d="M92.5521 62.521L93.0721 0.521008L308.854 0V62.521H216.302V154.74H154.427V62.521H92.5521Z" fill="#FAFAFA" fill-opacity="0.5"/>
</svg>
