<svg width="384" height="551" viewBox="0 0 384 551" fill="none" xmlns="http://www.w3.org/2000/svg">
<path d="M192 230.4C255.36 230.4 307.2 178.56 307.2 115.2C307.2 51.84 255.36 0 192 0C128.64 0 76.8 51.84 76.8 115.2C76.8 178.56 128.64 230.4 192 230.4ZM192 30.72C238.08 30.72 276.48 69.12 276.48 115.2C276.48 161.28 238.08 199.68 192 199.68C145.92 199.68 107.52 161.28 107.52 115.2C107.52 69.12 145.92 30.72 192 30.72Z" fill="#FAFAFA"/>
<path d="M192.5 468.683C210.284 468.683 224.7 454.275 224.7 436.5C224.7 418.725 210.284 404.317 192.5 404.317C174.716 404.317 160.3 418.725 160.3 436.5C160.3 454.275 174.716 468.683 192.5 468.683Z" stroke="#FAFAFA" stroke-width="25" stroke-miterlimit="10" stroke-linecap="round" stroke-linejoin="round"/>
<path d="M85 445.963V427.037C85 415.853 94.1329 406.606 105.415 406.606C124.863 406.606 132.814 392.841 123.036 375.959C117.449 366.281 120.78 353.699 130.557 348.107L149.145 337.461C157.634 332.407 168.593 335.418 173.643 343.914L174.825 345.957C184.495 362.839 200.397 362.839 210.175 345.957L211.357 343.914C216.407 335.418 227.366 332.407 235.855 337.461L254.443 348.107C264.22 353.699 267.551 366.281 261.964 375.959C252.186 392.841 260.137 406.606 279.585 406.606C290.76 406.606 300 415.746 300 427.037V445.963C300 457.146 290.867 466.394 279.585 466.394C260.137 466.394 252.186 480.159 261.964 497.041C267.551 506.827 264.22 519.301 254.443 524.893L235.855 535.539C227.366 540.593 216.407 537.582 211.357 529.086L210.175 527.043C200.505 510.161 184.603 510.161 174.825 527.043L173.643 529.086C168.593 537.582 157.634 540.593 149.145 535.539L130.557 524.893C120.78 519.301 117.449 506.719 123.036 497.041C132.814 480.159 124.863 466.394 105.415 466.394C94.1329 466.394 85 457.146 85 445.963Z" stroke="#FAFAFA" stroke-width="25" stroke-miterlimit="10" stroke-linecap="round" stroke-linejoin="round"/>
<path d="M0 460.8C0 341.76 84.48 249.6 192 249.6C299.52 249.6 384 341.76 384 460.8H289V430.08H351.36C337.92 343.68 272.64 280.32 192 280.32C111.36 280.32 46.08 343.68 32.64 430.08H95V460.8H0Z" fill="#FAFAFA"/>
</svg>
